<?xml version="1.0" standalone="no"?>
<!DOCTYPE svg PUBLIC "-//W3C//DTD SVG 20010904//EN"
 "http://www.w3.org/TR/2001/REC-SVG-20010904/DTD/svg10.dtd">
<svg version="1.0" xmlns="http://www.w3.org/2000/svg"
 width="500.000000pt" height="500.000000pt" viewBox="0 0 500.000000 500.000000"
 preserveAspectRatio="xMidYMid meet">

<g transform="translate(0.000000,500.000000) scale(0.100000,-0.100000)"
fill="#000000" stroke="none">
<path d="M2310 4316 c-250 -37 -488 -133 -672 -274 l-48 -36 0 -213 c0 -117 2
-213 5 -213 5 0 139 76 430 245 55 32 120 69 145 83 25 13 77 43 115 67 64 38
212 123 260 149 152 83 274 161 262 167 -53 30 -357 45 -497 25z"/>
<path d="M2826 4127 c-98 -56 -178 -106 -176 -112 1 -5 138 -88 304 -184 356
-205 320 -184 526 -303 91 -53 183 -106 205 -118 22 -12 71 -40 108 -62 37
-23 70 -38 73 -36 16 17 -97 262 -177 383 -66 101 -279 314 -379 380 -76 51
-274 155 -294 155 -6 0 -91 -46 -190 -103z"/>
<path d="M2380 3871 c-93 -56 -200 -118 -330 -191 -127 -72 -435 -252 -447
-262 -10 -8 -13 -77 -13 -281 0 -258 1 -270 17 -247 9 14 20 27 23 30 4 3 25
32 47 65 52 77 75 97 120 104 35 6 42 14 140 171 56 91 110 171 120 178 9 6
38 12 65 12 47 0 49 -1 105 -70 l57 -69 22 52 c13 29 46 106 73 171 60 140 88
181 132 190 58 11 90 -16 276 -233 97 -113 178 -208 180 -210 2 -3 18 3 37 11
60 29 99 12 195 -87 l83 -86 49 11 c66 16 76 39 78 173 l2 105 -43 24 c-24 14
-115 67 -203 118 -88 51 -234 136 -325 188 -91 52 -178 102 -195 112 -16 9
-54 31 -83 49 -29 17 -61 31 -70 30 -9 0 -60 -26 -112 -58z"/>
<path d="M1397 3818 c-148 -176 -260 -403 -312 -633 -22 -96 -31 -389 -16
-496 17 -118 32 -171 45 -166 12 5 135 91 264 185 l72 54 0 554 c0 305 -2 554
-4 554 -3 0 -24 -24 -49 -52z"/>
<path d="M2498 3633 c-9 -10 -51 -99 -93 -198 -42 -99 -80 -184 -85 -188 -4
-5 -33 25 -64 67 -58 79 -86 101 -114 91 -9 -3 -62 -78 -118 -168 -97 -155
-102 -162 -131 -159 -36 4 -54 -15 -168 -176 -73 -103 -82 -112 -111 -112 -24
0 -60 -20 -146 -82 -62 -45 -134 -97 -160 -116 -50 -35 -53 -39 -40 -58 13
-21 220 -52 492 -76 164 -13 988 -17 1280 -6 290 12 651 41 672 54 5 3 15 21
23 40 l15 35 -63 72 c-89 103 -197 244 -197 257 0 28 -27 38 -87 33 l-60 -5
-48 51 c-32 35 -56 51 -72 51 -19 0 -24 -4 -19 -16 4 -10 -1 -22 -10 -29 -10
-7 -17 -25 -16 -44 0 -19 -4 -31 -12 -31 -7 0 -23 -22 -36 -50 -13 -27 -29
-50 -35 -50 -7 0 -24 -9 -38 -20 -20 -16 -40 -20 -97 -20 -45 0 -69 4 -65 10
3 6 2 10 -3 10 -14 0 -31 45 -27 76 3 35 38 64 75 64 19 0 37 10 55 31 22 27
24 34 12 48 -16 18 -22 196 -8 206 5 2 44 -32 88 -77 66 -66 83 -79 97 -71 16
9 7 22 -69 101 -95 100 -114 108 -165 72 l-28 -20 -179 208 c-187 216 -210
234 -245 195z m241 -253 c94 -107 165 -196 158 -197 -7 -1 -73 10 -146 25
l-135 27 -19 55 c-10 31 -34 71 -54 92 l-35 36 8 74 c4 40 9 76 10 81 1 4 2
15 3 24 1 23 -1 25 210 -217z m-497 -113 c37 -51 107 -134 156 -186 79 -85 94
-97 152 -116 l64 -21 24 -93 25 -92 76 -55 c69 -51 100 -88 86 -103 -3 -3 -79
9 -168 27 -92 18 -194 32 -235 32 l-72 0 0 58 c0 56 -1 58 -50 102 l-49 45
-41 225 c-22 124 -43 235 -45 248 -9 39 9 23 77 -71z m-373 -277 l-13 -43 48
-42 48 -41 -7 -85 -6 -84 81 -50 c50 -31 90 -64 106 -88 14 -22 24 -40 22 -42
-2 -1 -61 16 -133 39 l-130 42 -41 77 c-23 41 -56 94 -74 117 -18 23 -30 48
-28 58 6 20 130 193 136 188 2 -2 -2 -23 -9 -46z m1388 -17 c12 -17 11 -23 -6
-44 -16 -20 -23 -22 -38 -13 -25 15 -29 55 -7 71 22 16 33 13 51 -14z m188
-73 c3 -5 1 -10 -4 -10 -6 0 -11 5 -11 10 0 6 2 10 4 10 3 0 8 -4 11 -10z
m-10 -200 c37 -34 76 -56 153 -85 56 -22 102 -46 102 -52 0 -7 -3 -13 -7 -13
-5 0 -68 -7 -141 -15 -74 -8 -138 -12 -143 -9 -17 10 -9 34 11 34 11 0 20 4
20 9 0 13 -50 51 -66 51 -21 0 -35 68 -23 113 12 44 9 45 94 -33z m-1813 8 c7
-24 25 -54 40 -66 18 -15 34 -44 44 -80 9 -32 19 -63 22 -70 3 -10 -13 -11
-79 -6 -46 4 -85 8 -87 9 -2 1 6 18 18 37 l20 35 -21 19 c-18 16 -20 25 -14
79 11 93 36 112 57 43z"/>
<path d="M3542 3238 c2 -51 5 -91 8 -89 6 5 87 -36 94 -48 10 -15 -29 -93 -64
-129 -17 -19 -30 -35 -28 -36 1 -1 15 -7 29 -13 15 -6 78 -78 142 -160 64 -81
130 -163 146 -182 l29 -35 5 30 c15 74 26 156 32 234 8 109 -9 300 -27 311 -7
4 -33 19 -58 34 -138 81 -302 175 -306 175 -3 0 -3 -42 -2 -92z"/>
<path d="M1718 2073 c9 -3 12 -43 12 -148 0 -105 -3 -145 -12 -148 -7 -3 29
-6 80 -6 72 -1 101 3 123 16 50 30 52 97 4 123 l-25 14 25 26 c27 28 31 50 14
82 -17 32 -71 48 -156 47 -43 0 -72 -3 -65 -6z m151 -18 c68 -35 37 -125 -43
-125 -49 0 -56 8 -56 69 0 32 3 61 7 64 11 12 63 8 92 -8z m11 -145 c24 -13
39 -59 29 -88 -10 -27 -51 -44 -98 -40 l-36 3 -3 68 -3 67 46 0 c26 0 55 -4
65 -10z"/>
<path d="M2226 2048 c-9 -37 -7 -45 7 -18 10 20 21 26 55 28 l42 3 0 -141 c0
-137 -1 -141 -22 -150 -17 -7 -8 -9 37 -8 33 0 52 2 43 5 -16 4 -18 20 -18
149 l0 144 33 0 c35 0 61 -15 70 -40 3 -8 6 0 6 18 l1 32 -124 0 c-120 0 -124
-1 -130 -22z"/>
<path d="M2039 1959 c-21 -21 -22 -40 -2 -46 6 -2 13 6 15 18 7 51 70 49 76
-3 2 -17 -4 -28 -20 -36 l-23 -12 23 6 c20 5 22 2 22 -39 0 -37 -4 -46 -26
-56 -28 -12 -39 -9 -54 18 -7 14 -4 25 11 45 26 33 10 34 -25 1 -30 -28 -33
-55 -8 -78 23 -21 41 -21 70 -1 22 15 24 15 36 -1 11 -15 16 -16 37 -4 20 11
21 14 7 17 -15 3 -18 15 -18 86 0 79 -1 83 -25 94 -38 18 -73 14 -96 -9z"/>
<path d="M2528 1958 c-47 -39 -63 -113 -32 -156 46 -66 124 -62 163 9 28 49
23 91 -14 132 -28 30 -88 38 -117 15z m86 -17 c39 -42 32 -155 -9 -171 -33
-12 -53 -4 -70 31 -17 32 -20 111 -5 140 14 25 61 25 84 0z"/>
<path d="M2723 1959 c14 -8 17 -24 17 -93 0 -70 3 -86 20 -101 20 -18 70 -14
70 6 0 6 -6 9 -14 6 -32 -13 -45 16 -48 102 l-3 84 -30 3 c-24 2 -27 1 -12 -7z"/>
<path d="M2971 1956 c-21 -11 -21 -14 -6 -20 15 -5 17 -18 13 -94 -4 -83 -3
-88 17 -90 19 -1 20 3 17 72 -5 92 7 120 49 111 22 -5 29 -3 29 9 0 26 -21 29
-51 7 -29 -21 -29 -21 -29 -1 0 23 -6 24 -39 6z"/>
<path d="M2858 1855 c3 -104 4 -106 25 -99 12 3 22 7 22 8 0 0 -1 45 -3 99 -3
92 -4 97 -25 97 -21 0 -22 -3 -19 -105z"/>
</g>
</svg>
